<svg xmlns="http://www.w3.org/2000/svg" viewBox="0 0 548.33 648.35"><defs><style>.cls-1{fill:#7973b5;stroke:#669;}.cls-2,.cls-6{fill:#231f20;}.cls-3{fill:#d41c55;}.cls-4{fill:#6f5401;stroke-width:2px;}.cls-4,.cls-5,.cls-6{stroke:#231f20;}.cls-4,.cls-5{stroke-linecap:round;}.cls-5{fill:#aad037;}.cls-6{stroke-width:0.75px;}.cls-7{fill:#fff;}.cls-8{fill:none;}</style></defs><title>Purple Monster with Antlers</title><g id="Layer_2" data-name="Layer 2"><g id="bodies"><path class="cls-1" d="M230,547.72c-37.86,0-73.77,16.53-82.5,33.07s5.82,67.06,2.91,67.06-34-42.26-46.6-67.06-19.41-59.72-24.26-59.72S68.86,527.5,66,533c-2.75-6.25-.36-16.18,3-25.2,1.28-3.41-2.7-6.42-6-4.6-2.91,1.61-5.6,2.42-7.69,2.24,6.79-7.35,14.88-24.5,16.5-34-2.39,6.22-8.45,13.48-15,18.79-3.24,2.61-8.08-.62-6.56-4.38,7.69-19,15.75-51.1,15.76-61.26C61.41,438.7,47,483,20.32,511.89a190,190,0,0,0,23.3-64.31c3-18.57,2.52-56,10.35-83.82,1.19-4.26-4.74-6.83-7.4-3.22l-.35.48c-2.8,3.82-9.06.77-7.3-3.57,2.91-7.16,6.23-14.72,9.5-21.73,1.9-4.09-3.78-7.55-6.89-4.19-.9,1-1.81,2-2.72,3-3.05,3.46-8.89.17-7-4,2.45-5.45,5.16-11,7.89-16.37,1.7-3.33-2-6.82-5.47-5.21-5.5,2.52-12,4.41-19.71,6.3,8.74-4.59,25.24-23,34-41.34,7.39-15.54,11-45.87,35.1-77.93,2.69-3.57-2.06-7.94-5.84-5.4-2.39,1.6-4.63,3.21-6.82,4.89-3.71,2.84-8.66-1.47-6-5.24,19.32-27.67,45.14-54.69,71-71.58-23.3,6.43-46.6,22-46.6,22S137.77,75.5,230,75.5s140.75,65.23,140.75,65.23-23.3-15.62-46.6-22c25.82,16.89,51.64,43.91,71,71.58,2.63,3.77-2.32,8.08-6,5.24-2.19-1.68-4.43-3.29-6.82-4.89-3.78-2.54-8.53,1.83-5.84,5.4,24.14,32.06,27.71,62.39,35.1,77.93,8.73,18.38,25.23,36.75,34,41.34-7.75-1.89-14.21-3.78-19.71-6.3-3.52-1.61-7.17,1.88-5.47,5.21,2.73,5.33,5.44,10.92,7.89,16.37,1.87,4.15-4,7.44-7,4-.91-1-1.82-2-2.72-3-3.11-3.36-8.79.1-6.89,4.19,3.27,7,6.59,14.57,9.5,21.73,1.76,4.34-4.5,7.39-7.3,3.57l-.35-.48c-2.66-3.61-8.59-1-7.4,3.22,7.83,27.83,7.33,65.25,10.35,83.82a190,190,0,0,0,23.3,64.31C413,483,398.57,438.7,394,424.61c0,10.16,8.06,42.23,15.76,61.26,1.52,3.76-3.32,7-6.56,4.38-6.57-5.31-12.63-12.57-15-18.79,1.62,9.5,9.71,26.65,16.5,34-2.09.18-4.78-.63-7.69-2.24-3.31-1.82-7.29,1.19-6,4.6,3.38,9,5.77,18.95,3,25.2-2.91-5.52-8.73-11.95-13.59-11.95S368.79,556,356.17,580.79s-43.68,67.06-46.59,67.06,11.65-50.53,2.91-67.06S267.85,547.72,230,547.72Z"/><path class="cls-1" d="M236.47,547.72c-37.86,0-73.77,16.53-82.51,33.07s5.83,67.06,2.92,67.06-34-42.26-46.6-67.06S90.87,521.07,86,521.07,75.34,527.5,72.42,533c-2.75-6.25-.36-16.18,3-25.2,1.27-3.41-2.71-6.42-6-4.6-2.91,1.61-5.6,2.42-7.69,2.24,6.79-7.35,14.87-24.5,16.5-34-2.4,6.22-8.46,13.48-15,18.79-3.23,2.61-8.08-.62-6.56-4.38,7.7-19,15.76-51.1,15.76-61.26C67.89,438.7,53.49,483,26.8,511.89a190.23,190.23,0,0,0,23.3-64.31c3-18.57,2.51-56,10.34-83.82,1.2-4.26-4.73-6.83-7.39-3.22l-.35.48c-2.8,3.82-9.06.77-7.3-3.57,2.9-7.16,6.22-14.72,9.49-21.73,1.91-4.09-3.77-7.55-6.89-4.19-.9,1-1.8,2-2.72,3-3.05,3.46-8.88.17-7-4,2.45-5.45,5.15-11,7.88-16.37,1.7-3.33-1.94-6.82-5.46-5.21-5.51,2.52-12,4.41-19.71,6.3,8.73-4.59,25.23-23,34-41.34C62.34,258.4,65.91,228.07,90,196c2.69-3.57-2.05-7.94-5.83-5.4-2.39,1.6-4.63,3.21-6.82,4.89-3.71,2.84-8.66-1.47-6-5.24,19.31-27.67,45.13-54.69,71-71.58-23.29,6.43-46.59,22-46.59,22S144.25,75.5,236.47,75.5s140.74,65.23,140.74,65.23-23.3-15.62-46.59-22c25.82,16.89,51.64,43.91,70.95,71.58,2.63,3.77-2.32,8.08-6,5.24-2.19-1.68-4.43-3.29-6.82-4.89-3.78-2.54-8.52,1.83-5.83,5.4C407,228.07,410.59,258.4,418,273.94c8.74,18.38,25.24,36.75,34,41.34-7.75-1.89-14.21-3.78-19.72-6.3-3.52-1.61-7.16,1.88-5.46,5.21,2.73,5.33,5.43,10.92,7.89,16.37,1.87,4.15-4,7.44-7,4-.91-1-1.82-2-2.72-3-3.11-3.36-8.79.1-6.89,4.19,3.27,7,6.59,14.57,9.49,21.73,1.77,4.34-4.5,7.39-7.3,3.57l-.35-.48c-2.66-3.61-8.59-1-7.39,3.22,7.83,27.83,7.33,65.25,10.35,83.82a190,190,0,0,0,23.29,64.31C419.44,483,405,438.7,400.51,424.61c0,10.16,8.06,42.23,15.76,61.26,1.52,3.76-3.33,7-6.56,4.38-6.57-5.31-12.64-12.57-15-18.79,1.63,9.5,9.71,26.65,16.51,34-2.1.18-4.79-.63-7.7-2.24-3.3-1.82-7.28,1.19-6,4.6,3.38,9,5.77,18.95,3,25.2-2.91-5.52-8.74-11.95-13.59-11.95S375.27,556,362.65,580.79,319,647.85,316.06,647.85s11.65-50.53,2.91-67.06S274.32,547.72,236.47,547.72Z"/><path class="cls-2" d="M294.25,229.16c.08-1.26.13-2.53.13-3.83,0-20.22-10.91-36.61-24.38-36.61s-24.38,16.39-24.38,36.61c0,1.37.06,2.73.16,4.07a94.14,94.14,0,0,1,24.68-3.62A93.14,93.14,0,0,1,294.25,229.16Z"/></g><g id="ears_upper" data-name="ears upper"><path class="cls-3" d="M77.51,36.88C91.18,30.69,108.58,19.35,109.08,0,99.73,7.42,82.73,11.66,63,13.44,70.54,19.84,77.51,36.88,77.51,36.88Z"/><path class="cls-2" d="M471.18,92.17v0Z"/><path class="cls-4" d="M94.39,142c11.44-24,.16-60-61.68-94.42"/><path class="cls-4" d="M1,74c30.07,6.61,40.75-9.47,46.19-17.67"/><path class="cls-4" d="M60.74,18.44c27,28.24,19.2,43,13.17,58.67"/><path class="cls-4" d="M362.06,153.56c33.14,24.94,87.39,22.29,147.2-52.26"/><path class="cls-4" d="M475.94,46.92c-14.37,40,7.35,60.92,18.43,71.61"/><path class="cls-4" d="M547.33,151.53c-45.36,27.63-65.56,11.29-87.5-3"/></g><g id="mouths"><path class="cls-5" d="M171.11,274.41c41,41,103.47,45,139.59,8.88"/><path class="cls-6" d="M316.25,273.22c-21.42,23.16-54.57,48.8-121.76,25.67"/><line class="cls-6" x1="196.15" y1="302.83" x2="192.83" y2="294.94"/><line class="cls-6" x1="205.17" y1="305.71" x2="201.86" y2="297.81"/><line class="cls-6" x1="212.52" y1="307.7" x2="317.64" y2="276.54"/><line class="cls-6" x1="222.7" y1="309.88" x2="219.38" y2="301.98"/><line class="cls-6" x1="229.63" y1="310.94" x2="226.31" y2="303.04"/><line class="cls-6" x1="239.26" y1="310.98" x2="235.95" y2="303.08"/><line class="cls-6" x1="248.62" y1="310.38" x2="245.3" y2="302.48"/><line class="cls-6" x1="258.18" y1="311.05" x2="254.87" y2="303.15"/><line class="cls-6" x1="270" y1="308.64" x2="266.69" y2="300.74"/><line class="cls-6" x1="278.34" y1="305.14" x2="275.03" y2="297.24"/><line class="cls-6" x1="288.22" y1="300.51" x2="284.91" y2="292.61"/><line class="cls-6" x1="291.76" y1="300.03" x2="288.45" y2="292.13"/><line class="cls-6" x1="301.59" y1="293.01" x2="298.27" y2="285.11"/><line class="cls-6" x1="308.77" y1="287.2" x2="305.45" y2="279.31"/><line class="cls-6" x1="311.01" y1="283.35" x2="307.7" y2="275.45"/><line class="cls-6" x1="314.73" y1="279.63" x2="311.41" y2="271.73"/><line class="cls-6" x1="317.64" y1="276.54" x2="314.33" y2="268.65"/><path class="cls-7" d="M259.82,170.57a14.38,14.38,0,0,0,20.36,0Z"/></g><g id="eyes"><path class="cls-7" d="M168.31,161.64a44.09,44.09,0,0,1,14.54,2.87s-.54-13.66-14.54-13.66-14.54,13.66-14.54,13.66A44.09,44.09,0,0,1,168.31,161.64Z"/><path class="cls-2" d="M192.7,230.75c.09-1.31.13-2.65.13-4,0-21.11-11-38.23-24.52-38.23s-24.52,17.12-24.52,38.23c0,1.43.06,2.85.16,4.25a91.49,91.49,0,0,1,24.82-3.78A90.8,90.8,0,0,1,192.7,230.75Z"/><line class="cls-8" x1="54.48" y1="327.94" x2="125.66" y2="254.04"/></g></g></svg>